<svg width="242" height="119" viewBox="0 0 242 119" fill="none" xmlns="http://www.w3.org/2000/svg">
<g clip-path="url(#clip0)">
<path fill-rule="evenodd" clip-rule="evenodd" d="M0 23.7716V39.0168H17.2572V118.937H32.3668V23.7716H0ZM55.953 118.937H40.2373V15.852H17.2572V1.09484e-05H55.953V118.937V118.937ZM134.632 78.5406C133.505 78.5406 127.563 78.5042 126.465 78.4089C124.607 78.2505 121.909 77.969 120.178 77.5686C118.222 77.0409 116.389 76.3447 115.56 75.8872C109.757 72.7204 105.805 66.5369 105.805 59.4107C105.805 49.043 114.134 40.6411 124.422 40.6411C134.491 40.6411 142.676 48.7157 143.004 58.8035H158.004C157.692 40.3652 142.785 25.5145 124.422 25.5145C105.847 25.5145 90.7887 40.688 90.7887 59.4107C90.7887 72.6135 98.2926 84.0192 109.228 89.6048C110.909 90.5943 114.073 91.6352 114.977 91.8742C118.061 92.6907 122.206 93.2522 125.57 93.4971C126.818 93.5997 132.902 93.648 134.188 93.6583V93.6803H241.99V78.5406H134.632V78.5406ZM125.57 103.165C120.896 102.855 115.501 102.026 111.248 100.783C110.451 100.549 107.152 99.3289 106.314 98.9404C91.5071 92.0252 81.1911 76.9238 81.1911 59.4107C81.1911 35.3824 100.575 15.8182 124.422 15.8182C148.049 15.8182 167.303 35.054 167.629 58.8035H183.245C182.922 26.3736 156.664 0.0878349 124.422 0.0878349C91.9779 0.0878349 65.5785 26.7005 65.5785 59.4107C65.5785 81.9638 78.1523 101.579 96.5785 111.6C99.9009 113.376 104.676 115.202 106.297 115.701C111.543 117.28 117.987 118.321 123.727 118.765C125.672 118.915 132.47 118.988 134.454 119H242V103.316H134.632C133.207 103.316 126.969 103.261 125.57 103.165" fill="#D91920"/>
<path d="M214.219 20.1342C209.54 20.1342 205.51 16.4251 205.51 11.3732C205.51 6.57194 209.54 2.76937 214.219 2.76937C218.894 2.76937 222.902 6.57194 222.902 11.3732C222.902 16.4251 218.894 20.1342 214.219 20.1342ZM214.219 1.10679C208.556 1.10679 203.862 5.65583 203.862 11.3732C203.862 17.0834 208.556 21.8145 214.219 21.8145C220.057 21.8145 224.567 17.0834 224.567 11.3732C224.567 5.65583 220.057 1.10679 214.219 1.10679Z" fill="#D91920"/>
<path d="M214.706 10.7941H212.484V7.56157H214.386C215.702 7.56157 216.599 7.97666 216.599 9.22266C216.599 9.87794 216.277 10.7941 214.706 10.7941ZM218.159 14.1838C218.159 13.0301 217.992 11.9612 216.684 11.542C218.322 10.9629 218.486 9.87794 218.486 9.22266C218.486 6.5719 216.098 6.23488 215.116 6.23488H210.602V16.5043H212.484V12.2866H213.968C216.098 12.2866 216.277 13.2763 216.277 14.1838C216.277 15.9357 216.277 16.2626 216.684 16.5043H218.574C218.159 16.0896 218.322 15.7612 218.159 14.1838" fill="#D91920"/>
</g>
<defs>
<clipPath id="clip0">
<rect width="1936" height="952" fill="white" transform="matrix(0.125 0 0 -0.125 0 119)"/>
</clipPath>
</defs>
</svg>
